# xmcd
# Track frame offsets:
# 150
# 18707
# 38728
# 57662
# 85077
# 100429
# 123016
# 143884
# 164763
# 186136
#
# Disc length: 2750 seconds
# Revision: 0
# Processed by: cddbd v1.5.2PL0 Copyright (c) Steve Scherf et al.
# Submitted via: VisiTrax 2.11.2.271 - For more info visit www.synapsa.com
#
DISCID=8a0abc0a
DTITLE=Ryan Fred - Guitars and Campfires
DYEAR=2012
DGENRE=Country
TTITLE0=Ryan, Fred - Guitars and Campfires
TTITLE1=Ryan, Fred - Hat turned down in front
TTITLE2=Ryan, Fred - Forever for you
TTITLE3=Ryan, Fred - Murchision River
TTITLE4=Ryan, Fred - Here I Am
TTITLE5=Ryan, Fred - Drowning in Your Liquor
TTITLE6=Ryan, Fred - I'll Be There
TTITLE7=Ryan, Fred - Please Forgive Me
TTITLE8=Ryan, Fred - Long Way Home
TTITLE9=Ryan, Fred - Lonely Hall
EXTD=
EXTT0=
EXTT1=
EXTT2=
EXTT3=
EXTT4=
EXTT5=
EXTT6=
EXTT7=
EXTT8=
EXTT9=
PLAYORDER=
